<?xml version="1.0" standalone="no"?>
<!DOCTYPE svg PUBLIC "-//W3C//DTD SVG 20010904//EN"
 "http://www.w3.org/TR/2001/REC-SVG-20010904/DTD/svg10.dtd">
<svg version="1.0" xmlns="http://www.w3.org/2000/svg"
 width="512.000000pt" height="512.000000pt" viewBox="0 0 512.000000 512.000000"
 preserveAspectRatio="xMidYMid meet">

<g transform="translate(0.000000,512.000000) scale(0.100000,-0.100000)"
fill="#000000" stroke="none">
<path d="M1975 4609 c-297 -27 -531 -177 -644 -412 -64 -132 -72 -177 -80
-413 l-6 -211 -32 -36 c-109 -124 -47 -444 128 -661 36 -45 67 -97 79 -130 87
-255 283 -453 516 -522 79 -24 219 -24 298 0 137 41 265 127 361 243 58 70
131 204 159 289 9 28 37 75 64 106 131 156 200 343 189 514 -7 92 -23 142 -58
170 -23 18 -24 23 -21 146 4 206 -41 381 -119 464 -18 18 -35 53 -44 89 -21
79 -61 150 -110 192 -52 46 -198 115 -300 142 -68 18 -249 43 -280 39 -5 0
-50 -4 -100 -9z"/>
<path d="M3646 2694 c-103 -20 -191 -51 -296 -105 -321 -164 -539 -473 -589
-833 -58 -416 137 -839 493 -1071 432 -282 988 -231 1360 126 154 146 259 323
313 526 24 89 27 115 26 273 0 157 -3 185 -26 273 -49 183 -141 347 -271 485
-162 172 -365 283 -596 326 -101 20 -318 20 -414 0z m39 -729 c78 -38 149
-109 187 -190 l30 -65 310 0 310 0 29 -29 c21 -22 29 -39 29 -66 0 -27 -8 -44
-29 -66 -27 -27 -35 -29 -100 -29 l-71 0 0 -115 c0 -133 -11 -167 -62 -184
-23 -8 -41 -8 -65 0 -52 17 -63 50 -63 184 l0 115 -143 0 -144 0 -37 -74 c-42
-86 -102 -145 -186 -185 -78 -37 -210 -42 -293 -11 -213 80 -314 321 -219 524
36 76 77 124 142 166 75 48 122 60 225 57 75 -3 100 -8 150 -32z"/>
<path d="M3435 1794 c-166 -86 -144 -323 34 -370 229 -59 350 259 139 367 -46
23 -131 25 -173 3z"/>
<path d="M1330 2434 c-560 -229 -703 -305 -834 -444 -81 -86 -115 -136 -176
-258 -89 -177 -144 -379 -156 -568 -8 -123 -6 -126 117 -174 225 -87 605 -159
1029 -195 406 -34 1097 -37 1475 -5 66 5 123 10 127 10 4 0 -20 37 -53 82 -66
92 -146 248 -178 348 -74 230 -80 493 -16 717 34 116 120 290 190 382 31 40
55 74 53 76 -7 5 -164 65 -170 65 -4 0 -28 -28 -55 -61 -141 -181 -390 -309
-598 -309 -205 0 -454 127 -595 305 -29 36 -57 65 -63 64 -7 0 -50 -16 -97
-35z"/>
</g>
</svg>
